<mxfile host="Electron" agent="Mozilla/5.0 (Windows NT 10.0; Win64; x64) AppleWebKit/537.36 (KHTML, like Gecko) draw.io/24.7.5 Chrome/126.0.6478.183 Electron/31.3.0 Safari/537.36" version="24.7.5">
  <diagram name="第 1 页" id="ojbuDknVVKxyJfUO8YgP">
    <mxGraphModel dx="1157" dy="591" grid="1" gridSize="10" guides="1" tooltips="1" connect="1" arrows="1" fold="1" page="1" pageScale="1" pageWidth="827" pageHeight="1169" math="0" shadow="0">
      <root>
        <mxCell id="0" />
        <mxCell id="1" parent="0" />
        <mxCell id="2" value="HashMap在多线程环境下的成环问题对比" style="text;html=1;strokeColor=none;fillColor=none;align=center;verticalAlign=middle;whiteSpace=wrap;rounded=0;fontSize=18;fontStyle=1" vertex="1" parent="1">
          <mxGeometry x="360" y="30" width="440" height="30" as="geometry" />
        </mxCell>
        <mxCell id="3" value="JDK7 HashMap成环原理" style="swimlane;fontSize=14;fillColor=#dae8fc;strokeColor=#6c8ebf;" vertex="1" parent="1">
          <mxGeometry x="40" y="80" width="500" height="700" as="geometry" />
        </mxCell>
        <mxCell id="4" value="初始链表状态" style="text;html=1;strokeColor=none;fillColor=none;align=center;verticalAlign=middle;whiteSpace=wrap;rounded=0;fontSize=14;fontStyle=1" vertex="1" parent="3">
          <mxGeometry x="200" y="40" width="100" height="30" as="geometry" />
        </mxCell>
        <mxCell id="5" value="Entry&lt;br&gt;Key=A" style="rounded=0;whiteSpace=wrap;html=1;fillColor=#d5e8d4;strokeColor=#82b366;" vertex="1" parent="3">
          <mxGeometry x="100" y="90" width="80" height="40" as="geometry" />
        </mxCell>
        <mxCell id="6" value="Entry&lt;br&gt;Key=B" style="rounded=0;whiteSpace=wrap;html=1;fillColor=#d5e8d4;strokeColor=#82b366;" vertex="1" parent="3">
          <mxGeometry x="220" y="90" width="80" height="40" as="geometry" />
        </mxCell>
        <mxCell id="7" value="Entry&lt;br&gt;Key=C" style="rounded=0;whiteSpace=wrap;html=1;fillColor=#d5e8d4;strokeColor=#82b366;" vertex="1" parent="3">
          <mxGeometry x="340" y="90" width="80" height="40" as="geometry" />
        </mxCell>
        <mxCell id="8" value="" style="endArrow=classic;html=1;rounded=0;entryX=0;entryY=0.5;entryDx=0;entryDy=0;exitX=1;exitY=0.5;exitDx=0;exitDy=0;" edge="1" parent="3" source="5" target="6">
          <mxGeometry width="50" height="50" relative="1" as="geometry">
            <mxPoint x="180" y="110" as="sourcePoint" />
            <mxPoint x="230" y="60" as="targetPoint" />
          </mxGeometry>
        </mxCell>
        <mxCell id="9" value="" style="endArrow=classic;html=1;rounded=0;entryX=0;entryY=0.5;entryDx=0;entryDy=0;exitX=1;exitY=0.5;exitDx=0;exitDy=0;" edge="1" parent="3" source="6" target="7">
          <mxGeometry width="50" height="50" relative="1" as="geometry">
            <mxPoint x="310" y="110" as="sourcePoint" />
            <mxPoint x="340" y="110" as="targetPoint" />
          </mxGeometry>
        </mxCell>
        <mxCell id="10" value="null" style="text;html=1;strokeColor=none;fillColor=none;align=center;verticalAlign=middle;whiteSpace=wrap;rounded=0;" vertex="1" parent="3">
          <mxGeometry x="420" y="95" width="40" height="30" as="geometry" />
        </mxCell>
        <mxCell id="11" value="" style="endArrow=classic;html=1;rounded=0;entryX=0;entryY=0.5;entryDx=0;entryDy=0;exitX=1;exitY=0.5;exitDx=0;exitDy=0;" edge="1" parent="3" source="7" target="10">
          <mxGeometry width="50" height="50" relative="1" as="geometry">
            <mxPoint x="430" y="110" as="sourcePoint" />
            <mxPoint x="480" y="60" as="targetPoint" />
          </mxGeometry>
        </mxCell>
        <mxCell id="12" value="线程1: resize()扩容过程" style="text;html=1;strokeColor=none;fillColor=none;align=center;verticalAlign=middle;whiteSpace=wrap;rounded=0;fontSize=14;fontStyle=1" vertex="1" parent="3">
          <mxGeometry x="155" y="160" width="190" height="30" as="geometry" />
        </mxCell>
        <mxCell id="13" value="1. 线程1获取Entry A" style="rounded=0;whiteSpace=wrap;html=1;fillColor=#fff2cc;strokeColor=#d6b656;align=left;spacingLeft=10;fontSize=12;" vertex="1" parent="3">
          <mxGeometry x="100" y="200" width="300" height="30" as="geometry" />
        </mxCell>
        <mxCell id="14" value="2. 线程1计算A在新表中位置，准备插入" style="rounded=0;whiteSpace=wrap;html=1;fillColor=#fff2cc;strokeColor=#d6b656;align=left;spacingLeft=10;fontSize=12;" vertex="1" parent="3">
          <mxGeometry x="100" y="240" width="300" height="30" as="geometry" />
        </mxCell>
        <mxCell id="15" value="3. 线程1被调度器挂起" style="rounded=0;whiteSpace=wrap;html=1;fillColor=#f8cecc;strokeColor=#b85450;align=left;spacingLeft=10;fontSize=12;" vertex="1" parent="3">
          <mxGeometry x="100" y="280" width="300" height="30" as="geometry" />
        </mxCell>
        <mxCell id="16" value="线程2: resize()完整扩容过程" style="text;html=1;strokeColor=none;fillColor=none;align=center;verticalAlign=middle;whiteSpace=wrap;rounded=0;fontSize=14;fontStyle=1" vertex="1" parent="3">
          <mxGeometry x="155" y="320" width="190" height="30" as="geometry" />
        </mxCell>
        <mxCell id="17" value="1. 线程2完成整个链表的rehash过程，采用头插法" style="rounded=0;whiteSpace=wrap;html=1;fillColor=#e1d5e7;strokeColor=#9673a6;align=left;spacingLeft=10;fontSize=12;" vertex="1" parent="3">
          <mxGeometry x="100" y="360" width="300" height="30" as="geometry" />
        </mxCell>
        <mxCell id="18" value="新表状态(链表已倒置): C → B → A → null" style="rounded=0;whiteSpace=wrap;html=1;fillColor=#e1d5e7;strokeColor=#9673a6;align=left;spacingLeft=10;fontSize=12;" vertex="1" parent="3">
          <mxGeometry x="100" y="400" width="300" height="30" as="geometry" />
        </mxCell>
        <mxCell id="19" value="线程1：继续执行" style="text;html=1;strokeColor=none;fillColor=none;align=center;verticalAlign=middle;whiteSpace=wrap;rounded=0;fontSize=14;fontStyle=1" vertex="1" parent="3">
          <mxGeometry x="155" y="440" width="190" height="30" as="geometry" />
        </mxCell>
        <mxCell id="20" value="1. 线程1唤醒，将Entry A插入新表" style="rounded=0;whiteSpace=wrap;html=1;fillColor=#fff2cc;strokeColor=#d6b656;align=left;spacingLeft=10;fontSize=12;" vertex="1" parent="3">
          <mxGeometry x="100" y="480" width="300" height="30" as="geometry" />
        </mxCell>
        <mxCell id="21" value="2. 线程1误认为当前是原链表状态，执行头插法" style="rounded=0;whiteSpace=wrap;html=1;fillColor=#fff2cc;strokeColor=#d6b656;align=left;spacingLeft=10;fontSize=12;" vertex="1" parent="3">
          <mxGeometry x="100" y="520" width="300" height="30" as="geometry" />
        </mxCell>
        <mxCell id="22" value="3. A.next = 当前头节点(C)，头节点 = A" style="rounded=0;whiteSpace=wrap;html=1;fillColor=#fff2cc;strokeColor=#d6b656;align=left;spacingLeft=10;fontSize=12;" vertex="1" parent="3">
          <mxGeometry x="100" y="560" width="300" height="30" as="geometry" />
        </mxCell>
        <mxCell id="23" value="成环结果" style="text;html=1;strokeColor=none;fillColor=none;align=center;verticalAlign=middle;whiteSpace=wrap;rounded=0;fontSize=14;fontStyle=1" vertex="1" parent="3">
          <mxGeometry x="200" y="600" width="100" height="30" as="geometry" />
        </mxCell>
        <mxCell id="24" value="A" style="ellipse;whiteSpace=wrap;html=1;aspect=fixed;fillColor=#f8cecc;strokeColor=#b85450;" vertex="1" parent="3">
          <mxGeometry x="140" y="640" width="40" height="40" as="geometry" />
        </mxCell>
        <mxCell id="25" value="B" style="ellipse;whiteSpace=wrap;html=1;aspect=fixed;fillColor=#d5e8d4;strokeColor=#82b366;" vertex="1" parent="3">
          <mxGeometry x="320" y="640" width="40" height="40" as="geometry" />
        </mxCell>
        <mxCell id="26" value="C" style="ellipse;whiteSpace=wrap;html=1;aspect=fixed;fillColor=#dae8fc;strokeColor=#6c8ebf;" vertex="1" parent="3">
          <mxGeometry x="230" y="640" width="40" height="40" as="geometry" />
        </mxCell>
        <mxCell id="27" value="" style="curved=1;endArrow=classic;html=1;rounded=0;exitX=1;exitY=0.5;exitDx=0;exitDy=0;entryX=0;entryY=0.5;entryDx=0;entryDy=0;" edge="1" parent="3" source="24" target="26">
          <mxGeometry width="50" height="50" relative="1" as="geometry">
            <mxPoint x="250" y="640" as="sourcePoint" />
            <mxPoint x="300" y="590" as="targetPoint" />
          </mxGeometry>
        </mxCell>
        <mxCell id="28" value="" style="curved=1;endArrow=classic;html=1;rounded=0;exitX=1;exitY=0.5;exitDx=0;exitDy=0;entryX=0;entryY=0.5;entryDx=0;entryDy=0;" edge="1" parent="3" source="26" target="25">
          <mxGeometry width="50" height="50" relative="1" as="geometry">
            <mxPoint x="250" y="640" as="sourcePoint" />
            <mxPoint x="300" y="590" as="targetPoint" />
          </mxGeometry>
        </mxCell>
        <mxCell id="29" value="" style="curved=1;endArrow=classic;html=1;rounded=0;entryX=0.5;entryY=0;entryDx=0;entryDy=0;exitX=1;exitY=0.5;exitDx=0;exitDy=0;" edge="1" parent="3" source="25" target="24">
          <mxGeometry width="50" height="50" relative="1" as="geometry">
            <mxPoint x="250" y="640" as="sourcePoint" />
            <mxPoint x="300" y="590" as="targetPoint" />
            <Array as="points">
              <mxPoint x="380" y="660" />
              <mxPoint x="380" y="620" />
              <mxPoint x="160" y="620" />
            </Array>
          </mxGeometry>
        </mxCell>
        <mxCell id="30" value="JDK8 HashMap改进" style="swimlane;fontSize=14;fillColor=#e1d5e7;strokeColor=#9673a6;" vertex="1" parent="1">
          <mxGeometry x="600" y="80" width="500" height="700" as="geometry" />
        </mxCell>
        <mxCell id="31" value="JDK8主要改进" style="text;html=1;strokeColor=none;fillColor=none;align=center;verticalAlign=middle;whiteSpace=wrap;rounded=0;fontSize=14;fontStyle=1" vertex="1" parent="30">
          <mxGeometry x="200" y="40" width="100" height="30" as="geometry" />
        </mxCell>
        <mxCell id="32" value="1. 数据结构改进：链表 + 红黑树" style="rounded=0;whiteSpace=wrap;html=1;fillColor=#d5e8d4;strokeColor=#82b366;align=left;spacingLeft=10;" vertex="1" parent="30">
          <mxGeometry x="100" y="80" width="300" height="40" as="geometry" />
        </mxCell>
        <mxCell id="33" value="2. 链表节点：从Entry变为Node" style="rounded=0;whiteSpace=wrap;html=1;fillColor=#d5e8d4;strokeColor=#82b366;align=left;spacingLeft=10;" vertex="1" parent="30">
          <mxGeometry x="100" y="130" width="300" height="40" as="geometry" />
        </mxCell>
        <mxCell id="34" value="3. resize()扩容方法变更：尾插法代替头插法" style="rounded=0;whiteSpace=wrap;html=1;fillColor=#d5e8d4;strokeColor=#82b366;align=left;spacingLeft=10;" vertex="1" parent="30">
          <mxGeometry x="100" y="180" width="300" height="40" as="geometry" />
        </mxCell>
        <mxCell id="35" value="4. 引入链表长度阈值(默认8)，超过转为红黑树" style="rounded=0;whiteSpace=wrap;html=1;fillColor=#d5e8d4;strokeColor=#82b366;align=left;spacingLeft=10;" vertex="1" parent="30">
          <mxGeometry x="100" y="230" width="300" height="40" as="geometry" />
        </mxCell>
        <mxCell id="36" value="多线程情况下的问题" style="text;html=1;strokeColor=none;fillColor=none;align=center;verticalAlign=middle;whiteSpace=wrap;rounded=0;fontSize=14;fontStyle=1" vertex="1" parent="30">
          <mxGeometry x="155" y="290" width="190" height="30" as="geometry" />
        </mxCell>
        <mxCell id="37" value="• 尾插法避免了成环问题" style="rounded=0;whiteSpace=wrap;html=1;fillColor=#fff2cc;strokeColor=#d6b656;align=left;spacingLeft=10;" vertex="1" parent="30">
          <mxGeometry x="100" y="330" width="300" height="40" as="geometry" />
        </mxCell>
        <mxCell id="38" value="• 节点不会成环，但仍存在数据覆盖、丢失风险" style="rounded=0;whiteSpace=wrap;html=1;fillColor=#f8cecc;strokeColor=#b85450;align=left;spacingLeft=10;" vertex="1" parent="30">
          <mxGeometry x="100" y="380" width="300" height="40" as="geometry" />
        </mxCell>
        <mxCell id="39" value="• 不会有死循环，但可能导致查询不到已插入值" style="rounded=0;whiteSpace=wrap;html=1;fillColor=#f8cecc;strokeColor=#b85450;align=left;spacingLeft=10;" vertex="1" parent="30">
          <mxGeometry x="100" y="430" width="300" height="40" as="geometry" />
        </mxCell>
        <mxCell id="40" value="JDK8 resize()方法(尾插法)" style="text;html=1;strokeColor=none;fillColor=none;align=center;verticalAlign=middle;whiteSpace=wrap;rounded=0;fontSize=14;fontStyle=1" vertex="1" parent="30">
          <mxGeometry x="155" y="490" width="190" height="30" as="geometry" />
        </mxCell>
        <mxCell id="41" value="原始链表" style="text;html=1;strokeColor=none;fillColor=none;align=center;verticalAlign=middle;whiteSpace=wrap;rounded=0;" vertex="1" parent="30">
          <mxGeometry x="40" y="530" width="60" height="30" as="geometry" />
        </mxCell>
        <mxCell id="42" value="A" style="rounded=0;whiteSpace=wrap;html=1;fillColor=#dae8fc;strokeColor=#6c8ebf;" vertex="1" parent="30">
          <mxGeometry x="120" y="530" width="40" height="30" as="geometry" />
        </mxCell>
        <mxCell id="43" value="B" style="rounded=0;whiteSpace=wrap;html=1;fillColor=#dae8fc;strokeColor=#6c8ebf;" vertex="1" parent="30">
          <mxGeometry x="200" y="530" width="40" height="30" as="geometry" />
        </mxCell>
        <mxCell id="44" value="C" style="rounded=0;whiteSpace=wrap;html=1;fillColor=#dae8fc;strokeColor=#6c8ebf;" vertex="1" parent="30">
          <mxGeometry x="280" y="530" width="40" height="30" as="geometry" />
        </mxCell>
        <mxCell id="45" value="" style="endArrow=classic;html=1;rounded=0;exitX=1;exitY=0.5;exitDx=0;exitDy=0;entryX=0;entryY=0.5;entryDx=0;entryDy=0;" edge="1" parent="30" source="42" target="43">
          <mxGeometry width="50" height="50" relative="1" as="geometry">
            <mxPoint x="250" y="640" as="sourcePoint" />
            <mxPoint x="300" y="590" as="targetPoint" />
          </mxGeometry>
        </mxCell>
        <mxCell id="46" value="" style="endArrow=classic;html=1;rounded=0;exitX=1;exitY=0.5;exitDx=0;exitDy=0;entryX=0;entryY=0.5;entryDx=0;entryDy=0;" edge="1" parent="30" source="43" target="44">
          <mxGeometry width="50" height="50" relative="1" as="geometry">
            <mxPoint x="250" y="640" as="sourcePoint" />
            <mxPoint x="300" y="590" as="targetPoint" />
          </mxGeometry>
        </mxCell>
        <mxCell id="47" value="null" style="text;html=1;strokeColor=none;fillColor=none;align=center;verticalAlign=middle;whiteSpace=wrap;rounded=0;" vertex="1" parent="30">
          <mxGeometry x="340" y="530" width="40" height="30" as="geometry" />
        </mxCell>
        <mxCell id="48" value="" style="endArrow=classic;html=1;rounded=0;exitX=1;exitY=0.5;exitDx=0;exitDy=0;entryX=0;entryY=0.5;entryDx=0;entryDy=0;" edge="1" parent="30" source="44" target="47">
          <mxGeometry width="50" height="50" relative="1" as="geometry">
            <mxPoint x="250" y="640" as="sourcePoint" />
            <mxPoint x="300" y="590" as="targetPoint" />
          </mxGeometry>
        </mxCell>
        <mxCell id="49" value="扩容后" style="text;html=1;strokeColor=none;fillColor=none;align=center;verticalAlign=middle;whiteSpace=wrap;rounded=0;" vertex="1" parent="30">
          <mxGeometry x="40" y="590" width="60" height="30" as="geometry" />
        </mxCell>
        <mxCell id="50" value="A" style="rounded=0;whiteSpace=wrap;html=1;fillColor=#d5e8d4;strokeColor=#82b366;" vertex="1" parent="30">
          <mxGeometry x="120" y="590" width="40" height="30" as="geometry" />
        </mxCell>
        <mxCell id="51" value="B" style="rounded=0;whiteSpace=wrap;html=1;fillColor=#d5e8d4;strokeColor=#82b366;" vertex="1" parent="30">
          <mxGeometry x="200" y="590" width="40" height="30" as="geometry" />
        </mxCell>
        <mxCell id="52" value="C" style="rounded=0;whiteSpace=wrap;html=1;fillColor=#d5e8d4;strokeColor=#82b366;" vertex="1" parent="30">
          <mxGeometry x="280" y="590" width="40" height="30" as="geometry" />
        </mxCell>
        <mxCell id="53" value="" style="endArrow=classic;html=1;rounded=0;exitX=1;exitY=0.5;exitDx=0;exitDy=0;entryX=0;entryY=0.5;entryDx=0;entryDy=0;" edge="1" parent="30" source="50" target="51">
          <mxGeometry width="50" height="50" relative="1" as="geometry">
            <mxPoint x="250" y="640" as="sourcePoint" />
            <mxPoint x="300" y="590" as="targetPoint" />
          </mxGeometry>
        </mxCell>
        <mxCell id="54" value="" style="endArrow=classic;html=1;rounded=0;exitX=1;exitY=0.5;exitDx=0;exitDy=0;entryX=0;entryY=0.5;entryDx=0;entryDy=0;" edge="1" parent="30" source="51" target="52">
          <mxGeometry width="50" height="50" relative="1" as="geometry">
            <mxPoint x="250" y="640" as="sourcePoint" />
            <mxPoint x="300" y="590" as="targetPoint" />
          </mxGeometry>
        </mxCell>
        <mxCell id="55" value="null" style="text;html=1;strokeColor=none;fillColor=none;align=center;verticalAlign=middle;whiteSpace=wrap;rounded=0;" vertex="1" parent="30">
          <mxGeometry x="340" y="590" width="40" height="30" as="geometry" />
        </mxCell>
        <mxCell id="56" value="" style="endArrow=classic;html=1;rounded=0;exitX=1;exitY=0.5;exitDx=0;exitDy=0;entryX=0;entryY=0.5;entryDx=0;entryDy=0;" edge="1" parent="30" source="52" target="55">
          <mxGeometry width="50" height="50" relative="1" as="geometry">
            <mxPoint x="250" y="640" as="sourcePoint" />
            <mxPoint x="300" y="590" as="targetPoint" />
          </mxGeometry>
        </mxCell>
        <mxCell id="57" value="链表顺序保持不变，不会成环" style="rounded=0;whiteSpace=wrap;html=1;fillColor=#d5e8d4;strokeColor=#82b366;align=center;" vertex="1" parent="30">
          <mxGeometry x="160" y="640" width="180" height="30" as="geometry" />
        </mxCell>
        <mxCell id="58" value="结论：JDK7使用头插法在多线程情况下可能导致链表成环形成死循环，JDK8使用尾插法避免了成环问题，但任何版本的HashMap都不是线程安全的。多线程环境应使用ConcurrentHashMap。" style="rounded=0;whiteSpace=wrap;html=1;fillColor=#f5f5f5;strokeColor=#666666;fontColor=#333333;fontSize=13;" vertex="1" parent="1">
          <mxGeometry x="40" y="790" width="1060" height="60" as="geometry" />
        </mxCell>
      </root>
    </mxGraphModel>
  </diagram>
</mxfile>
